<svg width="775" height="198" xmlns="http://www.w3.org/2000/svg" xmlns:xlink="http://www.w3.org/1999/xlink" overflow="hidden"><defs><clipPath id="clip0"><rect x="1412" y="1486" width="775" height="198"/></clipPath><linearGradient x1="1799.5" y1="1678" x2="1799.5" y2="1486" gradientUnits="userSpaceOnUse" spreadMethod="reflect" id="fill1"><stop offset="0" stop-color="#1E3E77"/><stop offset="0.5" stop-color="#2F5CAC"/><stop offset="1" stop-color="#3A6FCE"/></linearGradient></defs><g clip-path="url(#clip0)" transform="translate(-1412 -1486)"><path d="M1412 1518C1412 1500.33 1426.33 1486 1444 1486L2155 1486C2172.67 1486 2187 1500.33 2187 1518L2187 1646C2187 1663.67 2172.67 1678 2155 1678L1444 1678C1426.33 1678 1412 1663.67 1412 1646Z" fill="url(#fill1)" fill-rule="evenodd"/><text fill="#E7E6E6" font-family="Source Han Sans SC Heavy,Source Han Sans SC Heavy_MSFontService,sans-serif" font-weight="900" font-size="83" transform="matrix(1 0 0 1 1469.87 1613)">点击即刻体验</text><path d="M2069.32 1551.59 2069.32 1572.97 2024.25 1572.97 2024.25 1594.38 2069.32 1594.38 2069.32 1615.75 2108.74 1583.67ZM2063.5 1519C2099.12 1519 2128 1547.88 2128 1583.5 2128 1619.12 2099.12 1648 2063.5 1648 2027.88 1648 1999 1619.12 1999 1583.5 1999 1547.88 2027.88 1519 2063.5 1519Z" fill="#FFFFFF" fill-rule="evenodd"/></g></svg>