<svg width="1366" height="194" xmlns="http://www.w3.org/2000/svg" xmlns:xlink="http://www.w3.org/1999/xlink" overflow="hidden"><defs><clipPath id="clip0"><rect x="821" y="1126" width="1366" height="194"/></clipPath><linearGradient x1="1504" y1="1317" x2="1504" y2="1126" gradientUnits="userSpaceOnUse" spreadMethod="reflect" id="fill1"><stop offset="0" stop-color="#1E3E77"/><stop offset="0.5" stop-color="#2F5CAC"/><stop offset="1" stop-color="#3A6FCE"/></linearGradient></defs><g clip-path="url(#clip0)" transform="translate(-821 -1126)"><path d="M821 1157.83C821 1140.25 835.253 1126 852.834 1126L2155.17 1126C2172.75 1126 2187 1140.25 2187 1157.83L2187 1285.17C2187 1302.75 2172.75 1317 2155.17 1317L852.834 1317C835.253 1317 821 1302.75 821 1285.17Z" fill="url(#fill1)" fill-rule="evenodd"/><text fill="#E7E6E6" font-family="Arial Black,Arial Black_MSFontService,sans-serif" font-weight="900" font-size="83" transform="matrix(1 0 0 1 874.5 1248)">Click to <tspan font-size="83" x="375.833" y="0">e</tspan><tspan font-size="83" x="430.833" y="0">xperience </tspan>now</text><path d="M2069.32 1191.59 2069.32 1212.97 2024.25 1212.97 2024.25 1234.38 2069.32 1234.38 2069.32 1255.75 2108.74 1223.67ZM2063.5 1159C2099.12 1159 2128 1187.88 2128 1223.5 2128 1259.12 2099.12 1288 2063.5 1288 2027.88 1288 1999 1259.12 1999 1223.5 1999 1187.88 2027.88 1159 2063.5 1159Z" fill="#FFFFFF" fill-rule="evenodd"/></g></svg>